# xmcd CD database file
#
# Track frame offsets:
#	150
#	12817
#	24892
#	35470
#	48640
#	58085
#	68147
#	82602
#	96512
#	108022
#	118565
#	128800
#	139565
#	150045
#	159727
#	171597
#	181635
#	195917
#
# Disc length: 2749 seconds
#
# Revision: 1
# Processed by: cddbd v1.4PL0 Copyright (c) Steve Scherf et al.
# Submitted via: CDex 1.51
#
DISCID=d40abb12
DTITLE=Dean Martin - Unforgotten
DYEAR=1900
DGENRE=Swing
TTITLE0=Hit the Road to Dreamland
TTITLE1=Sway
TTITLE2=Basin Street Blues
TTITLE3=Promise Her Anything
TTITLE4=Watching the World Go By
TTITLE5=Just In Time
TTITLE6=Imagination
TTITLE7=Mississippi Mud
TTITLE8=True Love
TTITLE9=Louise
TTITLE10=Who's Sorry Now
TTITLE11=Innamorata
TTITLE12=Way Down Yonder In New Orleans
TTITLE13=Two Lovers Have I
TTITLE14=The Object Of My Affection
TTITLE15=It Takes So Long (To Say Goodbye)
TTITLE16=Cuddle Up A Little Closer
TTITLE17=Let Me Love You Tonight
EXTD=BB 61101
EXTT0=
EXTT1=
EXTT2=
EXTT3=
EXTT4=
EXTT5=
EXTT6=
EXTT7=
EXTT8=
EXTT9=
EXTT10=
EXTT11=
EXTT12=
EXTT13=
EXTT14=
EXTT15=
EXTT16=
EXTT17=
PLAYORDER=
